<svg t="1617370799721" class="icon" viewBox="0 0 1558 1024" version="1.1" xmlns="http://www.w3.org/2000/svg" p-id="13968" xmlns:xlink="http://www.w3.org/1999/xlink" width="304.296875" height="200"><defs><style type="text/css"></style></defs><path d="M1424.271473 1018.683077H129.676659A128.624527 128.624527 0 0 1 0 891.14444V128.112527A128.602022 128.602022 0 0 1 129.676659 0.562637h1294.594814a128.624527 128.624527 0 0 1 129.671032 127.538638v763.57767c-0.877714 70.813538-58.851868 127.589275-129.671032 126.998506z" fill="#F6F9FC" p-id="13969"></path><path d="M0 857.92633v33.758241c0.883341 70.813538 58.851868 127.589275 129.676659 126.987253h1294.594814a128.602022 128.602022 0 0 0 129.671032-127.527384v-33.21811H0z" fill="#F99F1B" p-id="13970"></path><path d="M0 161.330637v-33.758241C0.883341 56.753231 58.851868-0.022505 129.676659 0.57389h1294.594814a128.602022 128.602022 0 0 1 129.671032 127.533011v33.223736H0z m744.819341 167.182066l-79.303737 362.766066h-94.84378l78.234725-362.766066h95.912792z m400.277099 234.69855l50.367296-136.64211 28.93644 136.64211h-79.303736z m106.631033 128.602022h87.883956L1262.445714 328.512703H1181.538462a42.867341 42.867341 0 0 0-40.729319 26.792792l-143.067429 335.973274h100.205715l19.821714-53.585582h122.171077l11.787253 53.585582v0.534506z m-248.629451-118.958418c0-95.378286-134.498462-100.74022-133.963956-143.60756 0.540132-12.856264 13.402022-26.787165 40.729319-30.539956a182.181978 182.181978 0 0 1 93.769142 16.074549l16.614682-76.625582c-22.505495-8.040088-51.97644-16.074549-88.952967-16.07455-94.309275 0-160.751121 49.298286-160.751121 120.027429-0.534505 51.97644 47.149011 81.447385 83.056527 98.596571 37.505407 17.683692 49.832791 29.470945 49.832792 45.010989-0.534505 24.643516-30.005451 35.367385-57.332748 35.367385-48.229275 1.069011-75.562198-12.321758-97.52756-22.505495l-17.683692 79.303737c22.505495 10.183736 63.769319 18.752703 106.096527 19.287208 100.205714 0 165.578549-48.223648 166.113055-124.314725z m-394.915165-244.342154l-154.325802 363.294945h-100.205714L277.571516 402.465758c-4.821802-17.683692-9.109099-24.114637-23.04-32.154725a403.489758 403.489758 0 0 0-93.774769-30.539956l2.143649-10.718242H325.260659c20.367473 0 39.120176 13.930901 43.941978 37.511033l40.189187 209.514901 99.131077-246.491428h99.665583v-1.069011z" fill="#2D4990" p-id="13971"></path></svg>
