<svg t="1617370693740" class="icon" viewBox="0 0 1062 1024" version="1.1" xmlns="http://www.w3.org/2000/svg" p-id="9370" xmlns:xlink="http://www.w3.org/1999/xlink" width="207.421875" height="200"><defs><style type="text/css"></style></defs><path d="M19.14 0h1024v1024H19.14V0z" fill="#FFFFFF" p-id="9371"></path><path d="M-0.001 848.06H1062.28V175.946H0V848.06z" fill="#1B3771" p-id="9372"></path><path d="M531.894 700.729c45.05 41.06 105.627 66.081 171.214 66.081 141.172 0 255.31-114.143 255.31-255.32 0-140.667-114.132-255.31-255.31-255.31-65.587 0-126.159 25.033-171.214 66.082-51.567 47.052-84.106 114.137-84.106 189.228 0 75.107 32.539 142.686 84.106 189.239z" fill="#E9B040" p-id="9373"></path><path d="M924.376 653.677c0-4.505 3.495-8.011 8.51-8.011 4.505 0 8.011 3.506 8.011 8.01s-3.506 8.511-8.01 8.511a8.441 8.441 0 0 1-8.511-8.51z m8.51 6.502c2.996 0 6.008-2.996 6.008-6.507s-3.006-6.009-6.008-6.009c-3.506 0-6.508 2.502-6.508 6.009s3.002 6.507 6.508 6.507z m-1.503-2.497h-1.504v-7.511h3.007c0.5 0 1.504 0 2.003 0.499 0.5 0.51 0.999 1.004 0.999 1.503 0 1.004-0.5 2.003-1.493 2.003l1.493 3.506h-2.003l-0.999-3.006h-1.503v3.006z m0-4.505h2.002c0.5 0 0.5-0.51 0.5-1.004 0 0 0-0.499-0.5-0.499h-2.002v1.503z" fill="#E9B040" p-id="9374"></path><path d="M614.492 484.466a254.03 254.03 0 0 0-4.505-27.03h-156.19a271.449 271.449 0 0 1 7.511-27.035H602.48a301.464 301.464 0 0 0-10.513-27.035h-120.15a363.343 363.343 0 0 1 15.017-27.034h90.11a168.18 168.18 0 0 0-19.518-27.03h-51.068c7.511-9.515 16.521-18.524 25.531-27.03-45.055-41.054-105.133-66.08-171.214-66.08-141.172 0-255.314 114.641-255.314 255.309 0 141.172 114.142 255.32 255.314 255.32 66.081 0 126.154-25.027 171.214-66.081 9.005-8.511 18.025-17.516 26.03-27.03h-51.567a266.614 266.614 0 0 1-19.523-27.03h90.115a235.542 235.542 0 0 0 15.023-27.04h-120.15a216.56 216.56 0 0 1-10.514-27.03h141.172a274.445 274.445 0 0 0 7.512-27.04 255.608 255.608 0 0 0 4.505-27.03 244.031 244.031 0 0 0 0-54.074z" fill="#CC2131" p-id="9375"></path><path d="M924.376 570.575c0-4.505 3.495-8.011 8.51-8.011 4.505 0 8.011 3.506 8.011 8.01s-3.506 8.511-8.01 8.511a8.436 8.436 0 0 1-8.511-8.51z m8.51 6.507c2.996 0 6.008-3.006 6.008-6.507 0-3.506-3.006-6.009-6.008-6.009-3.506 0-6.508 2.503-6.508 6.009 0 3.495 3.002 6.507 6.508 6.507z m-1.503-2.502h-1.504v-7.511h3.007c0.5 0 1.504 0 2.003 0.499 0.5 0.51 0.999 1.004 0.999 1.503 0 1.004-0.5 2.003-1.493 2.003l1.493 3.506h-2.003l-0.999-3.007h-1.503v3.007z m0-4.5h2.002c0.5 0 0.5-0.51 0.5-1.003 0 0 0-0.5-0.5-0.5h-2.002v1.504z" fill="#FFFFFF" p-id="9376"></path><path d="M445.286 585.094c-8.51 2.502-14.519 3.506-21.026 3.506-13.016 0-21.027-8.011-21.027-23.035 0-2.996 0.5-6.008 0.999-9.504l1.498-10.014 1.503-8.52 12.017-72.085h26.53l-3.001 16.017h16.521l-4.005 26.535h-16.517l-7.511 43.052c0 1.504-0.5 2.996-0.5 4.006 0 5.509 3.002 8.01 9.515 8.01 3.506 0 5.509-0.498 8.51-1.003l-3.506 23.035z m85.604-1.01a94.242 94.242 0 0 1-28.538 4.516c-29.537 0-47.057-16.023-47.057-47.063 0-36.04 20.527-63.074 48.56-63.074 22.53 0 37.044 15.018 37.044 38.547 0 7.511-0.999 15.023-3.496 26.03H482.33v3.007c0 12.511 8.01 18.52 24.028 18.52 10.013 0 19.023-2.003 29.037-6.508l-4.505 26.025zM514.37 521.51v-4.999c0-8.51-5.005-13.515-13.016-13.515-9.01 0-15.018 6.508-17.52 18.52h30.536v-0.006z m-280.846 65.088h-27.535l16.023-99.624-35.546 99.624h-19.018l-2.003-99.124-17.026 99.124h-26.53l21.525-129.666h39.546l1.509 80.101 26.53-80.1h44.056l-21.531 129.665z m66.585-47.063c-3.001 0-3.506-0.5-5.509-0.5-15.517 0-23.528 6.01-23.528 16.023 0 7.002 4 11.018 10.008 11.018 13.52 0 18.525-11.023 19.03-26.54z m22.026 47.063h-24.028l0.499-11.018c-6.008 8.51-14.02 13.02-29.038 13.02-13.515 0-24.527-12.016-24.527-29.042 0-5 0.999-9.504 1.997-13.51 4.505-16.527 21.027-26.54 46.059-27.04 3.001 0 8.011 0 12.011 0.5 1-3.496 1-5 1-7.002 0-7.007-5.505-9.01-18.52-9.01-8.011 0-16.516 1.503-23.03 3.001l-3.5 1.504h-2.003l4.006-23.529c13.015-4.005 22.025-5.509 32.039-5.509 24.028 0 36.544 10.513 36.544 31.04 0 5 0.5 9.005-1.504 20.522l-5.503 37.549-0.999 6.507-0.999 5.499v3.506l-0.504 3.012z m341.923-104.129c7.5 0 14.513 1.998 24.527 7.007l4.505-28.538c-2.502-0.999-3.007-0.999-6.508-2.502l-11.517-2.502c-3.506-0.999-7.512-1.498-12.51-1.498-13.52 0-21.532 0-30.037 5.503-4.505 2.502-10.014 6.508-16.516 13.52l-3.007-1.004-28.533 20.028 1.503-11.012h-29.542l-16.517 105.132h27.54l10.014-56.566s4.006-8.011 6.008-10.519c5-6.508 9.504-6.508 15.013-6.508h2.003c-0.5 6.009-1.004 13.021-1.004 20.028 0 34.541 19.528 56.073 49.565 56.073 7.512 0 14.02-1.004 24.028-4.006l4.999-29.542c-9.005 4.515-16.517 6.508-23.524 6.508-16.022 0-25.536-11.507-25.536-31.535 0-28.044 14.014-48.067 35.046-48.067z m233.778-25.537l-6.009 37.05c-6.507-10.015-14.513-14.52-25.026-14.52-14.514 0-28.034 8.012-36.544 23.53l-17.526-10.514 1.503-11.013h-29.542l-17.016 105.133h28.034l9.004-56.567s7.013-8.01 9.016-10.518c4.005-5 8.51-6.508 12.016-6.508a98.317 98.317 0 0 0-5.01 31.046c0 26.53 14.02 44.045 34.043 44.045 10.014 0 18.025-3.496 25.536-12.006l-1.503 10.513h26.53l21.032-129.665h-28.538v-0.006zM864.303 561.56c-9.515 0-14.02-6.508-14.02-20.522 0-20.522 8.51-35.54 21.521-35.54 9.515 0 14.524 7.506 14.524 21.026 0 20.522-9.015 35.036-22.025 35.036zM736.64 539.534c-2.996 0-3.495-0.5-5.498-0.5-15.523 0-23.534 6.01-23.534 16.023 0 7.002 4.005 11.018 10.014 11.018 13.515 0 18.519-11.023 19.018-26.54z m22.025 47.063h-24.017l0.5-11.018c-6.009 8.51-14.02 13.02-29.044 13.02-13.51 0-25.526-11.517-25.526-29.042 0.5-25.027 19.019-40.55 49.055-40.55 3.007 0 8.011 0 12.017 0.5 1.004-3.496 1.004-5 1.004-7.002 0-7.007-5.51-9.01-18.53-9.01-8.011 0-17.016 1.503-23.024 3.001L697.095 508h-1.504l4.006-23.529c13.02-4.005 22.025-5.509 32.039-5.509 24.028 0 36.544 10.513 36.544 31.04 0 5 0.5 9.005-1.503 20.522l-5.499 37.549-1.004 6.507-0.999 5.499-0.51 3.506v3.012z m-378.96-82.603c5.508 0 13.015 0.5 21.026 1.504l4.005-24.533c-8.01-0.999-18.519-2.003-25.026-2.003-30.541 0-41.05 16.522-41.05 36.045 0 12.51 6.004 22.025 20.522 28.533 11.512 5.509 13.515 6.518 13.515 11.018 0 6.507-6.008 10.513-17.02 10.513-8.007 0-15.518-1.503-24.534-4.006l-3.001 24.029h0.505l5.004 1.004c1.498 0.499 4.006 0.998 7.007 0.998 7.007 0.999 12.51 0.999 16.017 0.999 30.541 0 43.556-11.507 43.556-35.04 0-14.514-7.007-23.025-21.026-29.033-11.512-5.509-13.016-6.008-13.016-11.018 0-5.004 5.005-9.01 13.515-9.01z" fill="#1B3771" p-id="9377"></path><path d="M700.6 452.931l-4.515 28.034c-10.014-5.004-17.015-7.007-24.527-7.007-21.021 0-35.535 20.028-35.535 48.56 0 19.529 10.014 31.535 26.02 31.535 7.013 0 14.524-1.992 23.534-6.508l-4.999 29.543c-10.014 2.502-16.516 3.506-24.527 3.506-29.543 0-48.062-21.032-48.062-55.573 0-46.558 25.527-78.592 62.07-78.592 5.01 0 9.016 0.5 12.522 0.999l11.507 3.001c3.506 1.498 4.005 1.498 6.513 2.502z m-88.605 19.523c-1.004-0.499-2.003-0.499-3.007-0.499-9.004 0-14.02 4.505-22.525 17.021l2.503-16.022h-25.527l-16.526 105.632h27.54c10.013-64.578 12.51-75.596 26.03-75.596h2.003c2.502-12.516 5.509-22.025 10.513-30.54h-1.004v0.004zM452.293 577.082c-7.512 2.503-13.515 3.507-20.028 3.507-14.02 0-22.025-8.012-22.025-23.035 0-2.996 0.5-6.008 0.999-9.504l1.498-10.519 1.503-8.01 12.017-72.085h27.534l-3.001 15.518h14.02l-4.006 26.03h-14.015l-7.511 43.557c0 2.003-0.5 3.506-0.5 4.505 0 5.509 3.002 8.011 9.515 8.011 3.506 0 5.509-0.5 7.512-1.004l-3.512 23.03z m-106.63-70.586c0 13.01 6.507 22.525 21.026 29.033 11.512 5.509 13.015 7.012 13.015 12.016 0 6.508-5.004 9.515-16.022 9.515-8.011 0-15.518-1.504-24.533-4.505l-4.005 24.527h1.503l5.01 1.004a23.215 23.215 0 0 0 7.007 1c6.508 0.499 12.017 0.998 15.517 0.998 29.038 0 42.553-11.007 42.553-35.04 0-14.514-5.504-23.025-19.523-29.543-11.518-5-13.016-6.503-13.016-11.007 0-6.009 4.505-9.01 13.515-9.01 5.51 0 13.016 0.998 20.023 2.002l4.005-24.532c-7.007-0.999-18.025-2.003-24.527-2.003-31.035 0-41.549 16.022-41.549 35.545z m566.701 72.09h-26.53l1.493-10.513c-7.512 8.01-15.523 11.506-25.537 11.506-20.017 0-33.532-17.015-33.532-43.546 0-35.046 20.522-64.583 45.05-64.583 11.017 0 19.028 4.505 26.53 14.52l6.008-37.05h27.54l-21.022 129.666z m-41.06-25.038c13.021 0 22.026-14.513 22.026-35.534 0-13.021-5-20.528-14.514-20.528-12.51 0-21.53 14.514-21.53 35.54 0 13.52 4.504 20.522 14.019 20.522z m-334.41 22.536c-9.51 2.996-18.52 4.505-28.534 4.505-31.04 0-47.057-16.527-47.057-47.063 0-36.539 20.527-63.074 48.56-63.074 22.53 0 37.044 15.018 37.044 38.546 0 7.512-0.998 15.024-2.996 26.031h-55.068c-0.505 1.504-0.505 2.003-0.505 3.007 0 12.017 8.011 18.52 24.533 18.52 9.514 0 18.524-2.004 28.538-6.508l-4.516 26.036z m-15.513-62.586v-5.504c0-8.51-4.51-13.514-13.015-13.514s-15.019 7.007-17.52 19.018h30.535z m-280.846 65.088H213l16.017-99.624-35.546 99.624h-19.018l-2.003-99.125-17.021 99.125h-25.531l21.525-129.666h39.546l1.503 80.101 26.536-80.1h43.052l-21.526 129.665z m68.583-47.063c-3.007-0.5-4.505-0.5-6.507-0.5-15.518 0-23.53 5.51-23.53 16.023 0 6.508 4.001 11.018 10.01 11.018 11.517 0 19.528-11.018 20.027-26.54z m20.023 47.063h-23.03l0.505-11.018c-7.007 8.521-16.022 12.51-29.038 12.51-15.018 0-25.032-11.506-25.032-28.532 0-25.527 17.526-40.55 48.561-40.55 3.002 0 7.007 0 11.013 0.5 0.998-3.002 0.998-4.5 0.998-6.503 0-7.007-4.504-9.515-17.52-9.515-8.011 0-17.02 1-23.03 3.002l-4.005 0.999-2.502 0.499 4.006-23.529c14.014-4.005 23.024-5.509 33.038-5.509 24.028 0 36.544 10.514 36.544 30.541 0 5.51-0.505 9.51-2.508 21.027l-5.503 37.548-1 6.508-0.504 5.498-0.5 3.506-0.493 3.018z m416.514-47.063c-2.996-0.5-4.505-0.5-6.507-0.5-15.523 0-23.534 5.51-23.534 16.023 0 6.508 4.005 11.018 10.014 11.018 11.012 0 19.528-11.018 20.027-26.54z m20.023 47.063h-23.024l0.5-11.018c-7.013 8.521-16.517 12.51-29.044 12.51-15.013 0-25.526-11.506-25.526-28.532 0-25.527 18.025-40.55 49.055-40.55 2.996 0 7.012 0 11.007 0.5 1.004-3.002 1.004-4.5 1.004-6.503 0-7.007-4.505-9.515-17.525-9.515-8.011 0-17.016 1-23.024 3.002l-4.006 0.999-2.502 0.499 4.005-23.529c14.01-4.005 23.024-5.509 33.038-5.509 24.028 0 36.544 10.514 36.544 30.541 0 5.51-0.499 9.51-2.502 21.027l-5.509 37.548-0.998 6.508-1.004 5.498-0.5 3.506v3.018h0.01z m74.097-106.132c-0.51-0.499-1.503-0.499-2.512-0.499-9.005 0-14.514 4.505-23.024 17.021l2.502-16.022h-25.027l-17.026 105.632h28.033c9.515-64.578 12.522-75.596 25.537-75.596h2.003c2.502-12.516 6.008-22.025 10.513-30.54h-0.999v0.004z" fill="#FFFFFF" p-id="9378"></path></svg>
