<svg t="1615040113167" class="icon" viewBox="0 0 1024 1024" version="1.1" xmlns="http://www.w3.org/2000/svg" p-id="14192" xmlns:xlink="http://www.w3.org/1999/xlink" width="200" height="200"><defs><style type="text/css"></style></defs><path d="M928 256H544l-109.26-109.26A64 64 0 0 0 389.48 128H96a96 96 0 0 0-96 96v576a96 96 0 0 0 96 96h832a96 96 0 0 0 96-96V352a96 96 0 0 0-96-96z m0 544H560v-160h97.76a24 24 0 0 0 16.9-41.04L530 455.42a25.62 25.62 0 0 0-36 0l-144.62 143.54a24 24 0 0 0 16.86 41.04H464v160H96V224h280.24l109.26 109.26a64 64 0 0 0 45.26 18.74H928z" p-id="14193" fill="#2c2c2c"></path></svg>