<svg t="1615039925876" class="icon" viewBox="0 0 1024 1024" version="1.1" xmlns="http://www.w3.org/2000/svg" p-id="5659" xmlns:xlink="http://www.w3.org/1999/xlink" width="200" height="200"><defs><style type="text/css"></style></defs><path d="M554.666667 853.333333H256a42.666667 42.666667 0 0 1-42.666667-42.666666V213.333333a42.666667 42.666667 0 0 1 42.666667-42.666666h213.333333v128a128 128 0 0 0 128 128h128v85.333333a42.666667 42.666667 0 0 0 85.333334 0V384v-2.56a55.893333 55.893333 0 0 0-2.56-11.52v-3.84a45.653333 45.653333 0 0 0-8.106667-11.946667l-256-256a45.653333 45.653333 0 0 0-11.946667-8.106666 13.653333 13.653333 0 0 0-3.84 0 37.546667 37.546667 0 0 0-14.08-4.693334H256a128 128 0 0 0-128 128v597.333334a128 128 0 0 0 128 128h298.666667a42.666667 42.666667 0 0 0 0-85.333334z m0-622.506666L665.173333 341.333333H597.333333a42.666667 42.666667 0 0 1-42.666666-42.666666zM341.333333 341.333333a42.666667 42.666667 0 0 0 0 85.333334h42.666667a42.666667 42.666667 0 0 0 0-85.333334z m256 170.666667H341.333333a42.666667 42.666667 0 0 0 0 85.333333h256a42.666667 42.666667 0 0 0 0-85.333333z m286.293334 225.706667l-85.333334-85.333334a42.666667 42.666667 0 0 0-14.08-8.96 42.666667 42.666667 0 0 0-32.426666 0 42.666667 42.666667 0 0 0-14.08 8.96l-85.333334 85.333334a42.666667 42.666667 0 0 0 60.586667 60.586666l12.373333-12.8V896a42.666667 42.666667 0 0 0 85.333334 0v-110.506667l12.373333 12.8a42.666667 42.666667 0 0 0 60.586667 0 42.666667 42.666667 0 0 0 0-60.586666zM512 768a42.666667 42.666667 0 0 0 0-85.333333H341.333333a42.666667 42.666667 0 0 0 0 85.333333z" p-id="5660" fill="#ffffff"></path></svg>